# File created by Blade
# Date/Time:  Mon Sep 22 19:00:17 2014
# Frame Rate: 120.000 fps
#------------------------------------------------------
:FULLY-SPECIFIED
:DEGREES
2321
root -0.615955 32.823011 -3.879815 40.646214 -0.031145 0.631323
Spine -45.642987 -3.639303 -1.413066
Head 16.190064 -10.007807 -8.078535
LeftShoulder -14.362912 42.390616 9.053902
LeftArm 70.542360 34.137904 -53.121495
LeftForeArm 8.342569 0.000000 6.860001
LeftHand -18.921043 -0.000000 -5.740441
LeftHandThumb1 -26.253704 0.000000 33.147579
RightShoulder -31.428557 -7.232085 -49.461183
RightArm -241.014001 55.605805 -249.006199
RightForeArm 67.609418 0.000000 149.261702
RightHand 13.196176 -0.000000 16.564654
RightHandThumb1 -24.326973 -0.000000 -32.862282
LeftUpLeg -35.122574 6.331285 -2.148940
LeftLeg -0.447960 -0.000000 0.000000
LeftFoot -1.969356 0.395855 -3.174428
LeftToeBase 2.073032 -0.000000 -0.000000
RightUpLeg -35.846891 -10.819414 5.534553
RightLeg -2.283224 -0.000000 0.000000
RightFoot -4.937801 -3.847778 19.438203
RightToeBase 16.283211 -0.000000 -0.000000
2322
root -0.618715 32.823602 -3.886385 40.691641 0.060595 0.629612
Spine -45.677746 -3.660732 -1.389797
Head 16.180693 -10.104670 -8.041635
LeftShoulder -14.362191 42.374225 9.078009
LeftArm 70.536839 34.127410 -53.124956
LeftForeArm 8.339284 0.000000 6.897911
LeftHand -18.942578 -0.000000 -5.701383
LeftHandThumb1 -26.253704 0.000000 33.147579
RightShoulder -31.390719 -7.263879 -49.423310
RightArm -240.846901 55.517902 -248.795007
RightForeArm 67.654725 -0.000000 149.211945
RightHand 13.222292 -0.000000 16.553158
RightHandThumb1 -24.326973 -0.000000 -32.862282
LeftUpLeg -35.184754 6.306394 -2.119693
LeftLeg -0.462389 -0.000000 0.000000
LeftFoot -1.908735 0.366585 -3.106351
LeftToeBase 1.944286 -0.000000 -0.000000
RightUpLeg -35.892365 -10.835192 5.573750
RightLeg -2.285021 -0.000000 0.000000
RightFoot -4.959770 -3.903714 19.423876
RightToeBase 16.320854 -0.000000 -0.000000
2323
root -0.619470 32.824767 -3.888893 40.704208 0.128631 0.641652
Spine -45.688480 -3.669458 -1.397031
Head 16.185152 -10.224744 -8.013018
LeftShoulder -14.354998 42.388994 9.093953
LeftArm 70.560102 34.107867 -53.100619
LeftForeArm 8.332305 -0.000000 6.917731
LeftHand -18.969471 -0.000000 -5.666057
LeftHandThumb1 -26.253704 0.000000 33.147579
RightShoulder -31.315871 -7.351221 -49.372994
RightArm -240.615325 55.488859 -248.510197
RightForeArm 67.431587 -0.000000 149.198124
RightHand 13.334086 -0.000000 16.444640
RightHandThumb1 -24.326973 -0.000000 -32.862282
LeftUpLeg -35.200421 6.290597 -2.117317
LeftLeg -0.484334 -0.000000 0.000000
LeftFoot -1.905646 0.300614 -3.168235
LeftToeBase 2.077761 -0.000000 -0.000000
RightUpLeg -35.888605 -10.863684 5.588309
RightLeg -2.313688 -0.000000 0.000000
RightFoot -4.938360 -3.930287 19.438686
RightToeBase 16.244837 -0.000000 -0.000000
2324
root -0.619792 32.825251 -3.891813 40.714103 0.201356 0.653050
Spine -45.688072 -3.674337 -1.396955
Head 16.159235 -10.345446 -7.994091
LeftShoulder -14.352490 42.340827 9.102057
LeftArm 70.673518 34.216639 -52.730727
LeftForeArm 8.020123 -0.000000 7.081323
LeftHand -19.084172 -0.000000 -5.592470
LeftHandThumb1 -26.253704 0.000000 33.147579
RightShoulder -31.265882 -7.381267 -49.367410
RightArm -240.508492 55.474237 -248.333504
RightForeArm 67.300445 0.000000 149.165550
RightHand 13.428620 -0.000000 16.457241
RightHandThumb1 -24.326973 -0.000000 -32.862282
LeftUpLeg -35.215954 6.275134 -2.112380
LeftLeg -0.504028 -0.000000 0.000000
LeftFoot -1.874504 0.243297 -3.148557
LeftToeBase 2.067654 -0.000000 -0.000000
RightUpLeg -35.891983 -10.901951 5.609986
RightLeg -2.323724 -0.000000 0.000000
RightFoot -4.955096 -3.954830 19.441056
RightToeBase 16.294015 -0.000000 -0.000000
2325
root -0.620216 32.826394 -3.894561 40.719666 0.283574 0.663415
Spine -45.696672 -3.695473 -1.388899
Head 16.156215 -10.587251 -8.034675
LeftShoulder -14.332484 42.359851 9.109156
LeftArm 70.819760 34.260046 -52.427481
LeftForeArm 7.728418 -0.000000 7.142405
LeftHand -19.086273 -0.000000 -5.514541
LeftHandThumb1 -26.253704 0.000000 33.147579
RightShoulder -31.214135 -7.393307 -49.341533
RightArm -240.559309 55.455561 -248.397943
RightForeArm 67.441353 -0.000000 149.203679
RightHand 13.376496 0.000000 16.252398
RightHandThumb1 -24.326973 -0.000000 -32.862282
LeftUpLeg -35.237392 6.254492 -2.103401
LeftLeg -0.504191 -0.000000 0.000000
LeftFoot -1.851069 0.190017 -3.155492
LeftToeBase 2.083338 -0.000000 -0.000000
RightUpLeg -35.882122 -10.931901 5.630431
RightLeg -2.349021 -0.000000 0.000000
RightFoot -4.954262 -3.993030 19.413874
RightToeBase 16.294487 -0.000000 -0.000000
2326
root -0.620857 32.827228 -3.896902 40.723167 0.342194 0.672025
Spine -45.689679 -3.694873 -1.395714
Head 16.122391 -10.721872 -8.014638
LeftShoulder -14.341654 42.364070 9.094230
LeftArm 70.854355 34.251512 -52.354417
LeftForeArm 7.657907 -0.000000 7.155770
LeftHand -19.105481 -0.000000 -5.498913
LeftHandThumb1 -26.253704 0.000000 33.147579
RightShoulder -31.184455 -7.380753 -49.343523
RightArm -240.647754 55.455386 -248.451719
RightForeArm 67.467550 -0.000000 149.191983
RightHand 13.412084 -0.000000 16.235767
RightHandThumb1 -24.326973 -0.000000 -32.862282
LeftUpLeg -35.245361 6.240444 -2.097223
LeftLeg -0.521297 -0.000000 0.000000
LeftFoot -1.791191 0.161876 -3.092107
LeftToeBase 1.960452 -0.000000 -0.000000
RightUpLeg -35.876454 -10.933417 5.625534
RightLeg -2.356222 -0.000000 0.000000
RightFoot -4.975275 -4.060167 19.392981
RightToeBase 16.298797 -0.000000 -0.000000
2327
root -0.621958 32.827173 -3.899528 40.732991 0.403795 0.679284
Spine -45.677066 -3.692465 -1.400112
Head 16.072401 -10.758017 -7.930981
LeftShoulder -14.373327 42.359739 9.063264
LeftArm 70.882760 34.239881 -52.309453
LeftForeArm 7.648679 0.000000 7.152819
LeftHand -19.115086 0.000000 -5.572097
LeftHandThumb1 -26.253704 0.000000 33.147579
RightShoulder -31.184575 -7.554625 -49.161725
RightArm -240.201819 55.379772 -248.155744
RightForeArm 67.445189 -0.000000 149.116633
RightHand 13.385503 -0.000000 16.272969
RightHandThumb1 -24.326973 -0.000000 -32.862282
LeftUpLeg -35.269793 6.230997 -2.094160
LeftLeg -0.521537 -0.000000 0.000000
LeftFoot -1.800732 0.111353 -3.153924
LeftToeBase 2.051891 -0.000000 -0.000000
RightUpLeg -35.886995 -10.948413 5.638065
RightLeg -2.351602 -0.000000 0.000000
RightFoot -4.989729 -4.078285 19.416630
RightToeBase 16.264355 -0.000000 -0.000000
2328
root -0.621398 32.827877 -3.901220 40.732220 0.462023 0.690565
Spine -45.666830 -3.679521 -1.417087
Head 16.044557 -10.917774 -7.928378
LeftShoulder -14.363781 42.350705 9.049650
LeftArm 70.914680 34.244109 -52.226499
LeftForeArm 7.542577 0.000000 7.149074
LeftHand -19.097217 -0.000000 -5.503170
LeftHandThumb1 -26.253704 0.000000 33.147579
RightShoulder -31.178595 -7.482923 -49.256499
RightArm -240.586301 55.428468 -248.430574
RightForeArm 67.427148 0.000000 149.134484
RightHand 13.363035 -0.000000 16.288981
RightHandThumb1 -24.326973 -0.000000 -32.862282
LeftUpLeg -35.275680 6.221087 -2.096359
LeftLeg -0.532887 -0.000000 0.000000
LeftFoot -1.779453 0.055645 -3.133363
LeftToeBase 2.062278 -0.000000 -0.000000
RightUpLeg -35.883954 -10.965421 5.640380
RightLeg -2.349348 -0.000000 0.000000
RightFoot -5.002935 -4.122799 19.449927
RightToeBase 16.241838 -0.000000 -0.000000
2329
root -0.621202 32.827923 -3.903831 40.735128 0.519652 0.701075
Spine -45.654060 -3.674496 -1.422706
Head 15.988341 -10.982731 -7.881355
LeftShoulder -14.405493 42.370834 9.002126
LeftArm 70.937099 34.205485 -52.244787
LeftForeArm 7.590191 -0.000000 7.096181
LeftHand -19.091629 -0.000000 -5.514217
LeftHandThumb1 -26.253704 0.000000 33.147579
RightShoulder -31.165413 -7.487101 -49.258345
RightArm -240.702255 55.447606 -248.537212
RightForeArm 67.381073 -0.000000 149.109854
RightHand 13.338055 -0.000000 16.308658
RightHandThumb1 -24.326973 -0.000000 -32.862282
LeftUpLeg -35.292694 6.197844 -2.088183
LeftLeg -0.528203 -0.000000 0.000000
LeftFoot -1.772776 0.031587 -3.151674
LeftToeBase 2.057250 -0.000000 -0.000000
RightUpLeg -35.888716 -10.982058 5.644345
RightLeg -2.340287 -0.000000 0.000000
RightFoot -5.022688 -4.156724 19.453176
RightToeBase 16.245922 -0.000000 -0.000000
2330
root -0.620685 32.827882 -3.906197 40.735447 0.569548 0.708872
Spine -45.641468 -3.669842 -1.425705
Head 15.942841 -11.052915 -7.836221
LeftShoulder -14.440772 42.375642 8.960931
LeftArm 70.930552 34.175667 -52.298379
LeftForeArm 7.627815 0.000000 7.034365
LeftHand -19.125167 -0.000000 -5.498747
LeftHandThumb1 -26.253704 0.000000 33.147579
RightShoulder -31.136548 -7.502642 -49.242283
RightArm -240.787443 55.480863 -248.637941
RightForeArm 67.304732 0.000000 149.077177
RightHand 13.312287 -0.000000 16.313647
RightHandThumb1 -24.326973 -0.000000 -32.862282
LeftUpLeg -35.305208 6.198082 -2.094595
LeftLeg -0.529354 -0.000000 0.000000
LeftFoot -1.750077 -0.021208 -3.138467
LeftToeBase 2.049619 -0.000000 -0.000000
RightUpLeg -35.888270 -10.984763 5.641504
RightLeg -2.337571 -0.000000 0.000000
RightFoot -5.043691 -4.196057 19.438513
RightToeBase 16.256575 -0.000000 -0.000000
2331
root -0.620000 32.828670 -3.908016 40.725698 0.626666 0.711626
Spine -45.649301 -3.663082 -1.424849
Head 15.987979 -11.116218 -7.809411
LeftShoulder -14.399126 42.415770 8.966780
LeftArm 70.916352 34.134313 -52.367651
LeftForeArm 7.614939 -0.000000 6.968778
LeftHand -19.105007 -0.000000 -5.452020
LeftHandThumb1 -26.253704 0.000000 33.147579
RightShoulder -31.052447 -7.542845 -49.210181
RightArm -240.928511 55.565701 -248.878392
RightForeArm 67.118422 -0.000000 149.022998
RightHand 13.433451 -0.000000 16.262692
RightHandThumb1 -24.326973 -0.000000 -32.862282
LeftUpLeg -35.309358 6.181828 -2.081321
LeftLeg -0.522960 -0.000000 0.000000
LeftFoot -1.713358 -0.037815 -3.067433
LeftToeBase 1.899069 -0.000000 -0.000000
RightUpLeg -35.877040 -11.004169 5.652160
RightLeg -2.334490 -0.000000 0.000000
RightFoot -5.049811 -4.223239 19.464925
RightToeBase 16.204596 -0.000000 -0.000000
2332
root -0.617706 32.828493 -3.907914 40.696994 0.675428 0.731502
Spine -45.616371 -3.672385 -1.427910
Head 15.957813 -11.148978 -7.758479
LeftShoulder -14.415866 42.420620 8.940057
LeftArm 70.876429 34.127514 -52.442028
LeftForeArm 7.616997 -0.000000 6.927772
LeftHand -19.106290 -0.000000 -5.390833
LeftHandThumb1 -26.253704 0.000000 33.147579
RightShoulder -31.007535 -7.534999 -49.196359
RightArm -241.029495 55.605240 -249.019183
RightForeArm 67.039003 0.000000 148.986718
RightHand 13.427174 -0.000000 16.226004
RightHandThumb1 -24.326973 -0.000000 -32.862282
LeftUpLeg -35.283665 6.168892 -2.095324
LeftLeg -0.532232 -0.000000 0.000000
LeftFoot -1.696478 -0.066218 -3.044032
LeftToeBase 1.958069 -0.000000 -0.000000
RightUpLeg -35.844240 -11.042165 5.646000
RightLeg -2.332111 -0.000000 0.000000
RightFoot -5.073149 -4.251338 19.404735
RightToeBase 16.240382 -0.000000 -0.000000
